<svg width="500" height="300" viewBox="0 0 500 300" xmlns="http://www.w3.org/2000/svg">
  
  <defs>
    <color id="bois-sombre" value="#5D4037"/>
    <color id="bois-moyen" value="#8D6E63"/>
    <color id="bois-clair" value="#A1887F"/>
    <color id="mat" value="#D7CCC8"/>
    <color id="voile" value="#EFEBE9"/>
    <color id="metal" value="#546E7A"/>
  </defs>

  <g transform="translate(50, 50)">

    <g stroke="#3E2723" stroke-width="3">
        <path d="M 0 150 L 400 150 C 400 220 350 240 200 240 C 50 240 20 200 0 150 Z" 
              fill="#8D6E63" />
        <rect x="0" y="140" width="400" height="15" fill="#5D4037" />
        <rect x="50" y="235" width="300" height="10" fill="#3E2723" />
    </g>

    <path d="M 395 155 L 410 155 L 420 230 L 380 230 Z" fill="#5D4037" stroke="#3E2723" stroke-width="2"/>

    <rect x="280" y="100" width="100" height="40" fill="#A1887F" stroke="#3E2723" stroke-width="2"/>
    <circle cx="310" cy="120" r="8" fill="#3E2723"/>
    <circle cx="350" cy="120" r="8" fill="#3E2723"/>

    <g stroke="#3E2723" stroke-width="2">
        <rect x="100" y="20" width="12" height="130" fill="#D7CCC8"/>
        <rect x="220" y="0" width="14" height="150" fill="#D7CCC8"/>
        <path d="M 5 145 L -40 120" stroke-width="4" stroke="#D7CCC8"/>
    </g>

    <g fill="#EFEBE9" stroke="#5D4037" stroke-width="2">
        <rect x="60" y="40" width="90" height="10" rx="5" />
        <rect x="70" y="80" width="70" height="10" rx="5" />
        <rect x="170" y="30" width="110" height="12" rx="5" />
        <rect x="180" y="70" width="90" height="12" rx="5" />
    </g>

    <g stroke="#3E2723" stroke-width="1" opacity="0.6" fill="none">
        <line x1="105" y1="30" x2="60" y2="140" />
        <line x1="110" y1="30" x2="140" y2="140" />
        <line x1="225" y1="10" x2="180" y2="140" />
        <line x1="230" y1="10" x2="270" y2="140" />
        <line x1="-30" y1="125" x2="105" y2="25" stroke-width="2"/>
    </g>

    <g transform="translate(20, 160)" fill="#546E7A" stroke="#37474F">
        <path d="M 0 0 L 0 30 M -10 25 Q 0 35 10 25" stroke-width="3" fill="none"/>
        <circle cx="0" cy="0" r="4"/>
    </g>

  </g>
</svg>