<svg width="800" height="400" viewBox="0 0 800 400" xmlns="http://www.w3.org/2000/svg">
  
  <g transform="translate(100, 100)">

    <g fill="#3E2723" stroke="#2D1E1A" stroke-width="3">
        <rect x="40" y="80" width="40" height="80" />
        
        <rect x="280" y="80" width="40" height="80" />
        
        <rect x="520" y="80" width="40" height="80" />
    </g>

    <g fill="#000000" opacity="0.2">
        <ellipse cx="60" cy="165" rx="25" ry="8" />
        <ellipse cx="300" cy="165" rx="25" ry="8" />
        <ellipse cx="540" cy="165" rx="25" ry="8" />
    </g>


    <rect x="0" y="20" width="600" height="100" rx="15" fill="#5D4037" />


    <rect x="0" y="0" width="600" height="100" rx="15" fill="#D4A373" stroke="#8D6E63" stroke-width="4" />


    <g stroke="#8D6E63" stroke-width="3" opacity="0.5">
      <line x1="50" y1="0" x2="50" y2="100" />
      <line x1="100" y1="0" x2="100" y2="100" />
      <line x1="150" y1="0" x2="150" y2="100" />
      <line x1="200" y1="0" x2="200" y2="100" />
      <line x1="250" y1="0" x2="250" y2="100" />
      <line x1="300" y1="0" x2="300" y2="100" />
      <line x1="350" y1="0" x2="350" y2="100" />
      <line x1="400" y1="0" x2="400" y2="100" />
      <line x1="450" y1="0" x2="450" y2="100" />
      <line x1="500" y1="0" x2="500" y2="100" />
      <line x1="550" y1="0" x2="550" y2="100" />
    </g>

    <g fill="#3E2723" opacity="0.3">
        <circle cx="50" cy="10" r="3" /> <circle cx="50" cy="90" r="3" />
        <circle cx="200" cy="10" r="3" /> <circle cx="200" cy="90" r="3" />
        <circle cx="350" cy="10" r="3" /> <circle cx="350" cy="90" r="3" />
        <circle cx="500" cy="10" r="3" /> <circle cx="500" cy="90" r="3" />
    </g>

  </g>
</svg>