<svg xmlns="http://www.w3.org/2000/svg" viewBox="0 0 200 200" width="400" height="400">
  <g transform="translate(30, 20)">
    <g transform="translate(110, 80)">
      <path d="M0,0 C20,-5 35,10 30,40 C25,60 5,65 -10,55 C-20,40 -15,10 0,0 Z" fill="#C8A97E" stroke="#8B5A2B" stroke-width="2"/>
      <path d="M-5,10 L25,20 M-10,25 L20,35 M-5,45 L15,50" stroke="#8B5A2B" stroke-width="1" opacity="0.6"/>
    </g>
    <path d="M115,60 L130,85" stroke="#8B5A2B" stroke-width="3"/>


    <path d="M110,140 L115,190 L95,195 L90,160" fill="#4A5D23"/> <path d="M90,140 L85,190 L65,190 L70,150" fill="#5F7A30"/> <path d="M105,55 C80,60 70,90 75,150 L120,150 C130,90 125,65 105,55 Z" fill="#EDAF3E" stroke="#B38124" stroke-width="2"/>
    <path d="M108,58 L85,130" stroke="#8B5A2B" stroke-width="3" stroke-linecap="round"/>


    <rect x="100" y="48" width="12" height="10" fill="#EBC8A5"/>
    <g fill="#EBC8A5">
      <circle cx="108" cy="40" r="14"/>
      <path d="M95,38 L88,43 L96,45 Z"/> </g>
    <circle cx="99" cy="38" r="1.5" fill="#000000"/>
    <path d="M98,52 C90,65 110,72 120,62 C122,58 120,48 120,48 L105,52 Z" fill="#A9A9A9"/>
    <path d="M90,30 C90,15 125,15 128,30 L135,38 L85,38 Z" fill="#5F7A30"/>

    <path d="M100,80 Q90,100 75,100" stroke="#EDAF3E" stroke-width="10" stroke-linecap="round"/> <circle cx="75" cy="100" r="6" fill="#EBC8A5"/> <path d="M80,100 L-20,85" stroke="#604020" stroke-width="3" stroke-linecap="round"/>
    <circle cx="70" cy="102" r="5" fill="#808080"/>
    <path d="M-20,85 L-20,130" stroke="#A9D0F5" stroke-width="1"/>
    
    <g transform="translate(-20, 135) rotate(90)">
      <path d="M0,-10 C5,-5 5,5 0,10 C-15,5 -15,-5 0,-10 Z" fill="#70A4B7"/> <path d="M0,-10 L5,-15 M0,10 L5,15" stroke="#70A4B7" stroke-width="2"/> <circle cx="-10" cy="-3" r="1.5" fill="white"/> </g>

  </g>
</svg>