<svg xmlns="http://www.w3.org/2000/svg" viewBox="0 0 300 200" width="400" height="250">
  <g transform="translate(150, 180)">

    <ellipse cx="0" cy="10" rx="120" ry="15" fill="#000000" opacity="0.15"/>
    
    <rect x="-100" y="10" width="5" height="10" fill="#696969"/>
    <rect x="95" y="10" width="5" height="10" fill="#696969"/>

    <path d="M-100,10 C-100,-40 -50,-80 0,-90 C50,-80 100,-40 100,10 L-100,10 Z" fill="#8FBC8F" stroke="#3CB371" stroke-width="3"/>
    
    <line x1="-100" y1="10" x2="100" y2="10" stroke="#3CB371" stroke-width="3"/>

    <g transform="translate(0, -5)">
        <path d="M-30,15 C-30,-20 -20,-45 0,-50 C20,-45 30,-20 30,15 Z" fill="#778899" stroke="#465566" stroke-width="2"/>
        <line x1="0" y1="10" x2="0" y2="-45" stroke="#333333" stroke-width="1.5" stroke-dasharray="2 2"/>
        <rect x="-3" y="10" width="6" height="5" fill="#C0C0C0" stroke="#333333" stroke-width="1"/>
    </g>

    <g stroke="#333333" stroke-width="1.5" stroke-linecap="round">
        <line x1="-80" y1="-50" x2="-140" y2="10"/>
        <line x1="80" y1="-50" x2="140" y2="10"/>
    </g>
    
    <rect x="-142" y="10" width="5" height="10" fill="#696969"/>
    <rect x="137" y="10" width="5" height="10" fill="#696969"/>

  </g>
</svg>