<svg width="400" height="400" viewBox="0 0 400 400" xmlns="http://www.w3.org/2000/svg">
  
  <defs>
    <color id="c-tronc" value="#795548"/>
    <color id="c-tronc-ombre" value="#5D4037"/>
    <color id="c-tronc-lumiere" value="#8D6E63"/>
    
    <color id="c-feuille-base" value="#43A047"/>  <color id="c-feuille-ombre" value="#2E7D32"/> <color id="c-feuille-top" value="#66BB6A"/>   <color id="c-feuille-flash" value="#A5D6A7"/> <filter id="softShadow" x="-20%" y="-20%" width="140%" height="140%">
      <feDropShadow dx="0" dy="5" stdDeviation="3" flood-color="#1B5E20" flood-opacity="0.3"/>
    </filter>
  </defs>

  <g transform="translate(200, 350)">

    <ellipse cx="0" cy="10" rx="60" ry="15" fill="#000000" opacity="0.2" />

    <g>
        <path d="M -25 10 
                 Q -20 -30 -15 -80 
                 Q -40 -130 -60 -150  
                 L 60 -150
                 Q 40 -130 15 -80
                 Q 20 -30 25 10
                 Z" 
              fill="#795548" stroke="#5D4037" stroke-width="2"/>

        <path d="M -15 -80 Q -40 -100 -50 -110" stroke="#795548" stroke-width="8" stroke-linecap="round"/>

        <path d="M 15 -90 Q 40 -110 55 -105" stroke="#795548" stroke-width="8" stroke-linecap="round"/>

        <g fill="none" stroke="#5D4037" stroke-width="2" opacity="0.4" stroke-linecap="round">
            <path d="M -10 0 Q -5 -20 -8 -40" />
            <path d="M 10 -5 Q 5 -25 8 -50" />
            <path d="M 0 -30 Q 2 -60 -2 -90" />
            <ellipse cx="0" cy="-60" rx="3" ry="5" stroke="#3E2723" fill="#5D4037" opacity="0.6"/>
        </g>
    </g>

    <g transform="translate(0, -160)" filter="url(#softShadow)">
        
        <g fill="#2E7D32">
            <circle cx="-60" cy="20" r="45" />
            <circle cx="60" cy="20" r="45" />
            <circle cx="0" cy="-40" r="55" />
            <circle cx="-30" cy="40" r="30" />
            <circle cx="30" cy="40" r="30" />
        </g>

        <g fill="#43A047">
            <circle cx="-60" cy="15" r="42" />
            <circle cx="60" cy="15" r="42" />
            <circle cx="0" cy="-45" r="52" />
            <circle cx="-25" cy="35" r="28" />
            <circle cx="25" cy="35" r="28" />
            <circle cx="0" cy="0" r="40" />
        </g>

        <g fill="#66BB6A">
            <circle cx="-60" cy="5" r="35" />
            <circle cx="60" cy="5" r="35" />
            <circle cx="0" cy="-55" r="45" />
        </g>

        <g fill="#A5D6A7" opacity="0.7">
            <path d="M -80 -10 Q -60 -20 -50 0 Q -70 10 -80 -10" />
            <path d="M 50 -10 Q 70 -20 80 0 Q 60 10 50 -10" />
            <path d="M -15 -70 Q 0 -85 15 -70 Q 0 -60 -15 -70" />
        </g>
        
        <g fill="#2E7D32" opacity="0.3">
            <circle cx="-40" cy="10" r="3" />
            <circle cx="40" cy="0" r="4" />
            <circle cx="10" cy="-20" r="3" />
            <path d="M -10 20 Q 0 30 10 20" stroke="#1B5E20" stroke-width="2" fill="none"/>
            <path d="M 50 20 Q 60 30 70 20" stroke="#1B5E20" stroke-width="2" fill="none"/>
        </g>

    </g>

  </g>
</svg>