<svg xmlns="http://www.w3.org/2000/svg" viewBox="0 0 200 300" width="400" height="600">
  <g transform="translate(100, 250)">

    <path d="M-60,0 C-30,-15 30,-15 60,0 L60,10 L-60,10 Z" fill="#7C9A55"/>

    <path d="M-12,0 L-4,-200 L4,-200 L12,0 Z" fill="#F0F0F0" stroke="#B0B0B0" stroke-width="1"/>
    <path d="M-12,0 L-4,-200" stroke="#D0D0D0" stroke-width="2" fill="none" opacity="0.5"/>

    <g transform="translate(0, -200)">
      <rect x="-10" y="-8" width="25" height="14" rx="4" fill="#E0E0E0" stroke="#999999" stroke-width="1"/>
      <circle cx="14" cy="-1" r="3" fill="#C0C0C0"/>
    </g>

    <g transform="translate(0, -200)">
      
      <defs>
        <path id="pale" d="M0,-3 C-5,-30 -2,-80 0,-95 C2,-80 5,-30 0,-3 Z" fill="#F8F8F8" stroke="#AAAAAA" stroke-width="1"/>
      </defs>

      <use href="#pale"/>
      
      <use href="#pale" transform="rotate(120)"/>
      
      <use href="#pale" transform="rotate(240)"/>

      <circle cx="0" cy="0" r="5" fill="#D0D0D0" stroke="#888888" stroke-width="1"/>
      <circle cx="0" cy="0" r="2" fill="#F0F0F0"/> </g>

  </g>
</svg>