<svg xmlns="http://www.w3.org/2000/svg" xmlns:xlink="http://www.w3.org/1999/xlink" width="500" zoomAndPan="magnify" viewBox="0 0 375 374.999991" height="500" preserveAspectRatio="xMidYMid meet" version="1.0"><defs><clipPath id="70e8a4a484"><path d="M 36 56 L 303 56 L 303 293 L 36 293 Z M 36 56 " clip-rule="nonzero"/></clipPath><clipPath id="f0a15cf019"><path d="M 134.789062 0.480469 L 338.25 119.625 L 204.210938 348.519531 L 0.75 229.375 Z M 134.789062 0.480469 " clip-rule="nonzero"/></clipPath><clipPath id="510a9d0a3f"><path d="M 169.5 174.5 C -2.230469 68.242188 165.667969 -26.976562 169.5 174.5 Z M 169.5 174.5 C -3.363281 278.195312 163.222656 375.746094 169.5 174.5 Z M 169.5 174.5 C -7.195312 76.71875 -8.085938 269.738281 169.5 174.5 Z M 169.5 174.5 C 175.355469 -26.996094 341.9375 70.554688 169.5 174.5 Z M 169.5 174.5 C 173.332031 375.976562 341.230469 280.757812 169.5 174.5 Z M 169.5 174.5 C 347.085938 79.261719 346.195312 272.28125 169.5 174.5 Z M 177.128906 178.96875 C 174.585938 177.480469 172.042969 175.988281 169.5 174.5 C 172.011719 173.125 174.527344 171.75 177.285156 169.953125 C 174.773438 171.328125 172.011719 173.125 169.5 174.5 C 169.46875 171.636719 169.6875 168.347656 169.65625 165.484375 C 169.6875 168.347656 169.46875 171.636719 169.5 174.5 C 166.957031 173.011719 164.414062 171.519531 161.871094 170.03125 C 164.414062 171.519531 166.957031 173.011719 169.5 174.5 C 166.988281 175.875 164.472656 177.25 161.714844 179.046875 C 164.226562 177.671875 166.988281 175.875 169.5 174.5 C 169.53125 177.363281 169.3125 180.652344 169.34375 183.515625 C 169.3125 180.652344 169.53125 177.363281 169.5 174.5 C 172.042969 175.988281 174.585938 177.480469 177.128906 178.96875 Z M 177.128906 178.96875 " clip-rule="nonzero"/></clipPath><clipPath id="15a4d6ced3"><path d="M 0 0 L 267 0 L 267 237 L 0 237 Z M 0 0 " clip-rule="nonzero"/></clipPath><clipPath id="6500880b2c"><path d="M 98.789062 -55.519531 L 302.25 63.625 L 168.210938 292.519531 L -35.25 173.375 Z M 98.789062 -55.519531 " clip-rule="nonzero"/></clipPath><clipPath id="804052bb47"><path d="M 133.5 118.5 C -38.230469 12.242188 129.667969 -82.976562 133.5 118.5 Z M 133.5 118.5 C -39.363281 222.195312 127.222656 319.746094 133.5 118.5 Z M 133.5 118.5 C -43.195312 20.71875 -44.085938 213.738281 133.5 118.5 Z M 133.5 118.5 C 139.355469 -82.996094 305.9375 14.554688 133.5 118.5 Z M 133.5 118.5 C 137.332031 319.976562 305.230469 224.757812 133.5 118.5 Z M 133.5 118.5 C 311.085938 23.261719 310.195312 216.28125 133.5 118.5 Z M 141.128906 122.96875 C 138.585938 121.480469 136.042969 119.988281 133.5 118.5 C 136.011719 117.125 138.527344 115.75 141.285156 113.953125 C 138.773438 115.328125 136.011719 117.125 133.5 118.5 C 133.46875 115.636719 133.6875 112.347656 133.65625 109.484375 C 133.6875 112.347656 133.46875 115.636719 133.5 118.5 C 130.957031 117.011719 128.414062 115.519531 125.871094 114.03125 C 128.414062 115.519531 130.957031 117.011719 133.5 118.5 C 130.988281 119.875 128.472656 121.25 125.714844 123.046875 C 128.226562 121.671875 130.988281 119.875 133.5 118.5 C 133.53125 121.363281 133.3125 124.652344 133.34375 127.515625 C 133.3125 124.652344 133.53125 121.363281 133.5 118.5 C 136.042969 119.988281 138.585938 121.480469 141.128906 122.96875 Z M 141.128906 122.96875 " clip-rule="nonzero"/></clipPath><clipPath id="c8bf342918"><rect x="0" width="267" y="0" height="237"/></clipPath><clipPath id="ab7f1b57eb"><path d="M 28 22.824219 L 311.753906 22.824219 L 311.753906 334.496094 L 28 334.496094 Z M 28 22.824219 " clip-rule="nonzero"/></clipPath><clipPath id="eed5b06e0c"><path d="M 281.871094 196.214844 L 239.460938 183.972656 C 233.871094 182.359375 233.871094 174.519531 239.460938 172.90625 L 281.871094 160.667969 C 307.675781 153.191406 319.597656 123.730469 306.210938 100.632812 C 292.75 77.535156 261.019531 73.035156 241.632812 91.507812 L 209.769531 121.773438 C 205.5625 125.765625 198.695312 121.84375 200.082031 116.242188 L 210.597656 73.734375 C 216.941406 47.796875 197.203125 22.824219 170.285156 22.824219 C 143.367188 22.824219 123.628906 47.796875 130.046875 73.734375 L 140.558594 116.242188 C 141.941406 121.84375 135.074219 125.765625 130.871094 121.769531 L 99.011719 91.507812 C 79.625 73.035156 47.894531 77.535156 34.433594 100.632812 C 20.976562 123.730469 32.894531 153.191406 58.773438 160.667969 L 101.171875 172.902344 C 106.761719 174.519531 106.761719 182.359375 101.171875 183.96875 L 58.699219 196.214844 C 32.894531 203.6875 20.976562 233.148438 34.359375 256.246094 C 47.820312 279.347656 79.550781 283.84375 98.9375 265.375 L 130.804688 235.109375 C 135.007812 231.117188 141.875 235.035156 140.488281 240.640625 L 129.972656 283.148438 C 123.5625 309.082031 143.367188 334.054688 170.210938 334.054688 C 197.136719 334.054688 216.867188 309.082031 210.457031 283.148438 L 199.945312 240.640625 C 198.558594 235.035156 205.421875 231.117188 209.628906 235.109375 L 241.496094 265.375 C 260.882812 283.84375 292.613281 279.347656 306.070312 256.246094 C 319.597656 233.148438 307.675781 203.6875 281.871094 196.214844 Z M 170.285156 205 C 155.5 205 143.507812 193.101562 143.507812 178.441406 C 143.507812 163.777344 155.5 151.878906 170.285156 151.878906 C 185.070312 151.878906 197.066406 163.777344 197.066406 178.441406 C 197.066406 193.101562 185.070312 205 170.285156 205 Z M 170.285156 205 " clip-rule="nonzero"/></clipPath><clipPath id="b5e2a02bc7"><path d="M 0.800781 0.824219 L 283.753906 0.824219 L 283.753906 312.28125 L 0.800781 312.28125 Z M 0.800781 0.824219 " clip-rule="nonzero"/></clipPath><clipPath id="0b2e7c7db0"><path d="M 253.871094 174.214844 L 211.460938 161.972656 C 205.871094 160.359375 205.871094 152.519531 211.460938 150.90625 L 253.871094 138.667969 C 279.675781 131.191406 291.597656 101.730469 278.210938 78.632812 C 264.75 55.535156 233.019531 51.035156 213.632812 69.507812 L 181.769531 99.773438 C 177.5625 103.765625 170.695312 99.84375 172.082031 94.242188 L 182.597656 51.734375 C 188.941406 25.796875 169.203125 0.824219 142.285156 0.824219 C 115.367188 0.824219 95.628906 25.796875 102.046875 51.734375 L 112.558594 94.242188 C 113.941406 99.84375 107.074219 103.765625 102.871094 99.769531 L 71.011719 69.507812 C 51.625 51.035156 19.894531 55.535156 6.433594 78.632812 C -7.023438 101.730469 4.894531 131.191406 30.773438 138.667969 L 73.171875 150.902344 C 78.761719 152.519531 78.761719 160.359375 73.171875 161.96875 L 30.699219 174.214844 C 4.894531 181.6875 -7.023438 211.148438 6.359375 234.246094 C 19.820312 257.347656 51.550781 261.84375 70.9375 243.375 L 102.804688 213.109375 C 107.007812 209.117188 113.875 213.035156 112.488281 218.640625 L 101.972656 261.148438 C 95.5625 287.082031 115.367188 312.054688 142.210938 312.054688 C 169.136719 312.054688 188.867188 287.082031 182.457031 261.148438 L 171.945312 218.640625 C 170.558594 213.035156 177.421875 209.117188 181.628906 213.109375 L 213.496094 243.375 C 232.882812 261.84375 264.613281 257.347656 278.070312 234.246094 C 291.597656 211.148438 279.675781 181.6875 253.871094 174.214844 Z M 142.285156 183 C 127.5 183 115.507812 171.101562 115.507812 156.441406 C 115.507812 141.777344 127.5 129.878906 142.285156 129.878906 C 157.070312 129.878906 169.066406 141.777344 169.066406 156.441406 C 169.066406 171.101562 157.070312 183 142.285156 183 Z M 142.285156 183 " clip-rule="nonzero"/></clipPath><clipPath id="aa4694210b"><rect x="0" width="284" y="0" height="313"/></clipPath><clipPath id="26be35923e"><path d="M 99.550781 107.707031 L 241.019531 107.707031 L 241.019531 249.175781 L 99.550781 249.175781 Z M 99.550781 107.707031 " clip-rule="nonzero"/></clipPath><clipPath id="ee32e22237"><path d="M 170.285156 107.707031 C 131.21875 107.707031 99.550781 139.375 99.550781 178.441406 C 99.550781 217.503906 131.21875 249.175781 170.285156 249.175781 C 209.351562 249.175781 241.019531 217.503906 241.019531 178.441406 C 241.019531 139.375 209.351562 107.707031 170.285156 107.707031 Z M 170.285156 107.707031 " clip-rule="nonzero"/></clipPath><clipPath id="8074bf292c"><path d="M 0.550781 0.707031 L 142.019531 0.707031 L 142.019531 142.175781 L 0.550781 142.175781 Z M 0.550781 0.707031 " clip-rule="nonzero"/></clipPath><clipPath id="54f7fcb9ee"><path d="M 71.285156 0.707031 C 32.21875 0.707031 0.550781 32.375 0.550781 71.441406 C 0.550781 110.503906 32.21875 142.175781 71.285156 142.175781 C 110.351562 142.175781 142.019531 110.503906 142.019531 71.441406 C 142.019531 32.375 110.351562 0.707031 71.285156 0.707031 Z M 71.285156 0.707031 " clip-rule="nonzero"/></clipPath><clipPath id="6bf6fc3e2c"><rect x="0" width="143" y="0" height="143"/></clipPath><clipPath id="93c7470ae6"><path d="M 123.574219 164.257812 L 138.097656 164.257812 L 138.097656 178.667969 L 123.574219 178.667969 Z M 123.574219 164.257812 " clip-rule="nonzero"/></clipPath><clipPath id="4332d74b23"><path d="M 130.824219 164.257812 C 126.820312 164.257812 123.574219 167.484375 123.574219 171.460938 C 123.574219 175.441406 126.820312 178.667969 130.824219 178.667969 C 134.832031 178.667969 138.078125 175.441406 138.078125 171.460938 C 138.078125 167.484375 134.832031 164.257812 130.824219 164.257812 Z M 130.824219 164.257812 " clip-rule="nonzero"/></clipPath><clipPath id="be5ba0b1e5"><path d="M 0.574219 0.257812 L 15.097656 0.257812 L 15.097656 14.667969 L 0.574219 14.667969 Z M 0.574219 0.257812 " clip-rule="nonzero"/></clipPath><clipPath id="e58e343f4b"><path d="M 7.824219 0.257812 C 3.820312 0.257812 0.574219 3.484375 0.574219 7.460938 C 0.574219 11.441406 3.820312 14.667969 7.824219 14.667969 C 11.832031 14.667969 15.078125 11.441406 15.078125 7.460938 C 15.078125 3.484375 11.832031 0.257812 7.824219 0.257812 Z M 7.824219 0.257812 " clip-rule="nonzero"/></clipPath><clipPath id="7b1196f413"><rect x="0" width="16" y="0" height="15"/></clipPath><clipPath id="141c82e7d1"><path d="M 200.921875 164.257812 L 215.445312 164.257812 L 215.445312 178.667969 L 200.921875 178.667969 Z M 200.921875 164.257812 " clip-rule="nonzero"/></clipPath><clipPath id="c58798e020"><path d="M 208.175781 164.257812 C 204.167969 164.257812 200.921875 167.484375 200.921875 171.460938 C 200.921875 175.441406 204.167969 178.667969 208.175781 178.667969 C 212.179688 178.667969 215.425781 175.441406 215.425781 171.460938 C 215.425781 167.484375 212.179688 164.257812 208.175781 164.257812 Z M 208.175781 164.257812 " clip-rule="nonzero"/></clipPath><clipPath id="b2ce622333"><path d="M 0.921875 0.257812 L 15.445312 0.257812 L 15.445312 14.667969 L 0.921875 14.667969 Z M 0.921875 0.257812 " clip-rule="nonzero"/></clipPath><clipPath id="abf9c3af97"><path d="M 8.175781 0.257812 C 4.167969 0.257812 0.921875 3.484375 0.921875 7.460938 C 0.921875 11.441406 4.167969 14.667969 8.175781 14.667969 C 12.179688 14.667969 15.425781 11.441406 15.425781 7.460938 C 15.425781 3.484375 12.179688 0.257812 8.175781 0.257812 Z M 8.175781 0.257812 " clip-rule="nonzero"/></clipPath><clipPath id="6e382b855a"><rect x="0" width="16" y="0" height="15"/></clipPath><clipPath id="23cea3179b"><path d="M 158.300781 171.535156 L 180.9375 171.535156 L 180.9375 184.738281 L 158.300781 184.738281 Z M 158.300781 171.535156 " clip-rule="nonzero"/></clipPath><clipPath id="eb98de91d6"><rect x="0" width="339" y="0" height="349"/></clipPath></defs><g transform="matrix(1, 0, 0, 1, 18, 13)"><g clip-path="url(#eb98de91d6)"><g clip-path="url(#70e8a4a484)"><g clip-path="url(#f0a15cf019)"><g clip-path="url(#510a9d0a3f)"><g transform="matrix(1, 0, 0, 1, 36, 56)"><g clip-path="url(#c8bf342918)"><g clip-path="url(#15a4d6ced3)"><g clip-path="url(#6500880b2c)"><g clip-path="url(#804052bb47)"><path fill="#f2f5f7" d="M 98.789062 -55.519531 L 302.25 63.625 L 168.210938 292.519531 L -35.25 173.375 Z M 98.789062 -55.519531 " fill-opacity="1" fill-rule="nonzero"/></g></g></g></g></g></g></g></g><g clip-path="url(#ab7f1b57eb)"><g clip-path="url(#eed5b06e0c)"><g transform="matrix(1, 0, 0, 1, 28, 22)"><g clip-path="url(#aa4694210b)"><g clip-path="url(#b5e2a02bc7)"><g clip-path="url(#0b2e7c7db0)"><path fill="#ffffff" d="M 0.816406 0.824219 L 283.753906 0.824219 L 283.753906 312.496094 L 0.816406 312.496094 Z M 0.816406 0.824219 " fill-opacity="1" fill-rule="nonzero"/></g></g></g></g></g></g><g clip-path="url(#26be35923e)"><g clip-path="url(#ee32e22237)"><g transform="matrix(1, 0, 0, 1, 99, 107)"><g clip-path="url(#6bf6fc3e2c)"><g clip-path="url(#8074bf292c)"><g clip-path="url(#54f7fcb9ee)"><path fill="#ffde59" d="M 0.550781 0.707031 L 142.019531 0.707031 L 142.019531 142.175781 L 0.550781 142.175781 Z M 0.550781 0.707031 " fill-opacity="1" fill-rule="nonzero"/></g></g></g></g></g></g><g clip-path="url(#93c7470ae6)"><g clip-path="url(#4332d74b23)"><g transform="matrix(1, 0, 0, 1, 123, 164)"><g clip-path="url(#7b1196f413)"><g clip-path="url(#be5ba0b1e5)"><g clip-path="url(#e58e343f4b)"><path fill="#000000" d="M 0.574219 0.257812 L 15.097656 0.257812 L 15.097656 14.667969 L 0.574219 14.667969 Z M 0.574219 0.257812 " fill-opacity="1" fill-rule="nonzero"/></g></g></g></g></g></g><g clip-path="url(#141c82e7d1)"><g clip-path="url(#c58798e020)"><g transform="matrix(1, 0, 0, 1, 200, 164)"><g clip-path="url(#6e382b855a)"><g clip-path="url(#b2ce622333)"><g clip-path="url(#abf9c3af97)"><path fill="#000000" d="M 0.921875 0.257812 L 15.445312 0.257812 L 15.445312 14.667969 L 0.921875 14.667969 Z M 0.921875 0.257812 " fill-opacity="1" fill-rule="nonzero"/></g></g></g></g></g></g><g clip-path="url(#23cea3179b)"><path fill="#000000" d="M 160.097656 171.546875 C 160.335938 171.546875 160.566406 171.589844 160.785156 171.683594 C 161.007812 171.773438 161.203125 171.90625 161.371094 172.074219 C 161.539062 172.242188 161.667969 172.4375 161.757812 172.660156 C 161.851562 172.882812 161.894531 173.113281 161.894531 173.351562 C 161.894531 177.632812 165.359375 181.117188 169.621094 181.117188 C 173.878906 181.117188 177.34375 177.632812 177.34375 173.351562 C 177.34375 173.113281 177.390625 172.882812 177.480469 172.660156 C 177.570312 172.4375 177.699219 172.242188 177.871094 172.074219 C 178.039062 171.90625 178.230469 171.773438 178.453125 171.683594 C 178.671875 171.589844 178.902344 171.546875 179.140625 171.546875 C 179.378906 171.546875 179.609375 171.589844 179.828125 171.683594 C 180.046875 171.773438 180.242188 171.90625 180.410156 172.074219 C 180.578125 172.242188 180.710938 172.4375 180.800781 172.660156 C 180.890625 172.882812 180.9375 173.113281 180.9375 173.351562 C 180.9375 179.625 175.859375 184.730469 169.621094 184.730469 C 163.378906 184.730469 158.300781 179.625 158.300781 173.351562 C 158.300781 173.113281 158.347656 172.882812 158.4375 172.660156 C 158.53125 172.4375 158.660156 172.242188 158.828125 172.074219 C 158.996094 171.90625 159.191406 171.773438 159.410156 171.683594 C 159.632812 171.589844 159.859375 171.546875 160.097656 171.546875 Z M 160.097656 171.546875 " fill-opacity="1" fill-rule="nonzero"/></g></g></g></svg>