<svg xmlns="http://www.w3.org/2000/svg" xmlns:xlink="http://www.w3.org/1999/xlink" width="500" zoomAndPan="magnify" viewBox="0 0 375 374.999991" height="500" preserveAspectRatio="xMidYMid meet" version="1.0"><defs><clipPath id="51930bac1a"><path d="M 54 69 L 321 69 L 321 306 L 54 306 Z M 54 69 " clip-rule="nonzero"/></clipPath><clipPath id="42f9fc337e"><path d="M 152.785156 13.480469 L 356.246094 132.628906 L 222.207031 361.523438 L 18.746094 242.375 Z M 152.785156 13.480469 " clip-rule="nonzero"/></clipPath><clipPath id="75997092a7"><path d="M 187.496094 187.5 C 15.765625 81.246094 183.664062 -13.972656 187.496094 187.5 Z M 187.496094 187.5 C 14.632812 291.199219 181.21875 388.75 187.496094 187.5 Z M 187.496094 187.5 C 10.800781 89.722656 9.910156 282.742188 187.496094 187.5 Z M 187.496094 187.5 C 193.351562 -13.992188 359.9375 83.558594 187.496094 187.5 Z M 187.496094 187.5 C 191.328125 388.976562 359.226562 293.757812 187.496094 187.5 Z M 187.496094 187.5 C 365.082031 92.261719 364.191406 285.28125 187.496094 187.5 Z M 195.125 191.96875 C 192.582031 190.480469 190.039062 188.992188 187.496094 187.5 C 190.007812 186.128906 192.523438 184.753906 195.28125 182.953125 C 192.769531 184.328125 190.007812 186.128906 187.496094 187.5 C 187.464844 184.636719 187.683594 181.351562 187.652344 178.484375 C 187.683594 181.351562 187.464844 184.636719 187.496094 187.5 C 184.953125 186.011719 182.410156 184.523438 179.867188 183.035156 C 182.410156 184.523438 184.953125 186.011719 187.496094 187.5 C 184.984375 188.875 182.472656 190.25 179.710938 192.050781 C 182.222656 190.675781 184.984375 188.875 187.496094 187.5 C 187.527344 190.367188 187.308594 193.652344 187.339844 196.519531 C 187.308594 193.652344 187.527344 190.367188 187.496094 187.5 C 190.039062 188.992188 192.582031 190.480469 195.125 191.96875 Z M 195.125 191.96875 " clip-rule="nonzero"/></clipPath><clipPath id="6c222ae147"><path d="M 0 0 L 267 0 L 267 237 L 0 237 Z M 0 0 " clip-rule="nonzero"/></clipPath><clipPath id="6ff1938fac"><path d="M 98.785156 -55.519531 L 302.246094 63.628906 L 168.207031 292.523438 L -35.253906 173.375 Z M 98.785156 -55.519531 " clip-rule="nonzero"/></clipPath><clipPath id="8aaeb5ca66"><path d="M 133.496094 118.5 C -38.234375 12.246094 129.664062 -82.972656 133.496094 118.5 Z M 133.496094 118.5 C -39.367188 222.199219 127.21875 319.75 133.496094 118.5 Z M 133.496094 118.5 C -43.199219 20.722656 -44.089844 213.742188 133.496094 118.5 Z M 133.496094 118.5 C 139.351562 -82.992188 305.9375 14.558594 133.496094 118.5 Z M 133.496094 118.5 C 137.328125 319.976562 305.226562 224.757812 133.496094 118.5 Z M 133.496094 118.5 C 311.082031 23.261719 310.191406 216.28125 133.496094 118.5 Z M 141.125 122.96875 C 138.582031 121.480469 136.039062 119.992188 133.496094 118.5 C 136.007812 117.128906 138.523438 115.753906 141.28125 113.953125 C 138.769531 115.328125 136.007812 117.128906 133.496094 118.5 C 133.464844 115.636719 133.683594 112.351562 133.652344 109.484375 C 133.683594 112.351562 133.464844 115.636719 133.496094 118.5 C 130.953125 117.011719 128.410156 115.523438 125.867188 114.035156 C 128.410156 115.523438 130.953125 117.011719 133.496094 118.5 C 130.984375 119.875 128.472656 121.25 125.710938 123.050781 C 128.222656 121.675781 130.984375 119.875 133.496094 118.5 C 133.527344 121.367188 133.308594 124.652344 133.339844 127.519531 C 133.308594 124.652344 133.527344 121.367188 133.496094 118.5 C 136.039062 119.992188 138.582031 121.480469 141.125 122.96875 Z M 141.125 122.96875 " clip-rule="nonzero"/></clipPath><clipPath id="db2292154c"><rect x="0" width="267" y="0" height="237"/></clipPath><clipPath id="549585af6b"><path d="M 46 35.824219 L 329.753906 35.824219 L 329.753906 347.496094 L 46 347.496094 Z M 46 35.824219 " clip-rule="nonzero"/></clipPath><clipPath id="f35938e006"><path d="M 299.871094 209.214844 L 257.460938 196.972656 C 251.871094 195.359375 251.871094 187.519531 257.460938 185.90625 L 299.871094 173.667969 C 325.675781 166.191406 337.597656 136.730469 324.210938 113.632812 C 310.753906 90.535156 279.019531 86.035156 259.632812 104.507812 L 227.769531 134.773438 C 223.5625 138.765625 216.699219 134.84375 218.082031 129.242188 L 228.597656 86.734375 C 234.941406 60.796875 215.203125 35.824219 188.285156 35.824219 C 161.367188 35.824219 141.628906 60.796875 148.046875 86.734375 L 158.558594 129.242188 C 159.941406 134.84375 153.074219 138.765625 148.871094 134.769531 L 117.011719 104.507812 C 97.625 86.035156 65.894531 90.535156 52.433594 113.632812 C 38.976562 136.730469 50.894531 166.191406 76.773438 173.667969 L 119.171875 185.902344 C 124.761719 187.519531 124.761719 195.359375 119.171875 196.96875 L 76.699219 209.214844 C 50.894531 216.6875 38.976562 246.148438 52.359375 269.246094 C 65.820312 292.347656 97.550781 296.84375 116.9375 278.375 L 148.804688 248.109375 C 153.007812 244.117188 159.875 248.035156 158.488281 253.640625 L 147.972656 296.148438 C 141.5625 322.082031 161.367188 347.054688 188.210938 347.054688 C 215.136719 347.054688 234.867188 322.082031 228.457031 296.148438 L 217.945312 253.640625 C 216.558594 248.035156 223.421875 244.117188 227.628906 248.109375 L 259.496094 278.375 C 278.882812 296.84375 310.613281 292.347656 324.070312 269.246094 C 337.597656 246.148438 325.675781 216.6875 299.871094 209.214844 Z M 188.285156 218 C 173.5 218 161.507812 206.101562 161.507812 191.441406 C 161.507812 176.777344 173.5 164.878906 188.285156 164.878906 C 203.070312 164.878906 215.066406 176.777344 215.066406 191.441406 C 215.066406 206.101562 203.070312 218 188.285156 218 Z M 188.285156 218 " clip-rule="nonzero"/></clipPath><clipPath id="f63998382f"><path d="M 0.800781 0.824219 L 283.753906 0.824219 L 283.753906 312.28125 L 0.800781 312.28125 Z M 0.800781 0.824219 " clip-rule="nonzero"/></clipPath><clipPath id="ed84200399"><path d="M 253.871094 174.214844 L 211.460938 161.972656 C 205.871094 160.359375 205.871094 152.519531 211.460938 150.90625 L 253.871094 138.667969 C 279.675781 131.191406 291.597656 101.730469 278.210938 78.632812 C 264.753906 55.535156 233.019531 51.035156 213.632812 69.507812 L 181.769531 99.773438 C 177.5625 103.765625 170.699219 99.84375 172.082031 94.242188 L 182.597656 51.734375 C 188.941406 25.796875 169.203125 0.824219 142.285156 0.824219 C 115.367188 0.824219 95.628906 25.796875 102.046875 51.734375 L 112.558594 94.242188 C 113.941406 99.84375 107.074219 103.765625 102.871094 99.769531 L 71.011719 69.507812 C 51.625 51.035156 19.894531 55.535156 6.433594 78.632812 C -7.023438 101.730469 4.894531 131.191406 30.773438 138.667969 L 73.171875 150.902344 C 78.761719 152.519531 78.761719 160.359375 73.171875 161.96875 L 30.699219 174.214844 C 4.894531 181.6875 -7.023438 211.148438 6.359375 234.246094 C 19.820312 257.347656 51.550781 261.84375 70.9375 243.375 L 102.804688 213.109375 C 107.007812 209.117188 113.875 213.035156 112.488281 218.640625 L 101.972656 261.148438 C 95.5625 287.082031 115.367188 312.054688 142.210938 312.054688 C 169.136719 312.054688 188.867188 287.082031 182.457031 261.148438 L 171.945312 218.640625 C 170.558594 213.035156 177.421875 209.117188 181.628906 213.109375 L 213.496094 243.375 C 232.882812 261.84375 264.613281 257.347656 278.070312 234.246094 C 291.597656 211.148438 279.675781 181.6875 253.871094 174.214844 Z M 142.285156 183 C 127.5 183 115.507812 171.101562 115.507812 156.441406 C 115.507812 141.777344 127.5 129.878906 142.285156 129.878906 C 157.070312 129.878906 169.066406 141.777344 169.066406 156.441406 C 169.066406 171.101562 157.070312 183 142.285156 183 Z M 142.285156 183 " clip-rule="nonzero"/></clipPath><clipPath id="6b91624791"><rect x="0" width="284" y="0" height="313"/></clipPath><clipPath id="b6e07ff148"><path d="M 117.550781 120.707031 L 259.019531 120.707031 L 259.019531 262.175781 L 117.550781 262.175781 Z M 117.550781 120.707031 " clip-rule="nonzero"/></clipPath><clipPath id="ad2082968f"><path d="M 188.285156 120.707031 C 149.21875 120.707031 117.550781 152.375 117.550781 191.441406 C 117.550781 230.503906 149.21875 262.175781 188.285156 262.175781 C 227.351562 262.175781 259.019531 230.503906 259.019531 191.441406 C 259.019531 152.375 227.351562 120.707031 188.285156 120.707031 Z M 188.285156 120.707031 " clip-rule="nonzero"/></clipPath><clipPath id="0571528eb7"><path d="M 0.550781 0.707031 L 142.019531 0.707031 L 142.019531 142.175781 L 0.550781 142.175781 Z M 0.550781 0.707031 " clip-rule="nonzero"/></clipPath><clipPath id="bbdcc9a205"><path d="M 71.285156 0.707031 C 32.21875 0.707031 0.550781 32.375 0.550781 71.441406 C 0.550781 110.503906 32.21875 142.175781 71.285156 142.175781 C 110.351562 142.175781 142.019531 110.503906 142.019531 71.441406 C 142.019531 32.375 110.351562 0.707031 71.285156 0.707031 Z M 71.285156 0.707031 " clip-rule="nonzero"/></clipPath><clipPath id="20d605528d"><rect x="0" width="143" y="0" height="143"/></clipPath></defs><g clip-path="url(#51930bac1a)"><g clip-path="url(#42f9fc337e)"><g clip-path="url(#75997092a7)"><g transform="matrix(1, 0, 0, 1, 54, 69)"><g clip-path="url(#db2292154c)"><g clip-path="url(#6c222ae147)"><g clip-path="url(#6ff1938fac)"><g clip-path="url(#8aaeb5ca66)"><path fill="#f2f5f7" d="M 98.785156 -55.519531 L 302.246094 63.628906 L 168.207031 292.523438 L -35.253906 173.375 Z M 98.785156 -55.519531 " fill-opacity="1" fill-rule="nonzero"/></g></g></g></g></g></g></g></g><g clip-path="url(#549585af6b)"><g clip-path="url(#f35938e006)"><g transform="matrix(1, 0, 0, 1, 46, 35)"><g clip-path="url(#6b91624791)"><g clip-path="url(#f63998382f)"><g clip-path="url(#ed84200399)"><path fill="#ffffff" d="M 0.816406 0.824219 L 283.753906 0.824219 L 283.753906 312.496094 L 0.816406 312.496094 Z M 0.816406 0.824219 " fill-opacity="1" fill-rule="nonzero"/></g></g></g></g></g></g><g clip-path="url(#b6e07ff148)"><g clip-path="url(#ad2082968f)"><g transform="matrix(1, 0, 0, 1, 117, 120)"><g clip-path="url(#20d605528d)"><g clip-path="url(#0571528eb7)"><g clip-path="url(#bbdcc9a205)"><path fill="#ffde59" d="M 0.550781 0.707031 L 142.019531 0.707031 L 142.019531 142.175781 L 0.550781 142.175781 Z M 0.550781 0.707031 " fill-opacity="1" fill-rule="nonzero"/></g></g></g></g></g></g></svg>