<svg xmlns="http://www.w3.org/2000/svg" xmlns:xlink="http://www.w3.org/1999/xlink" width="500" zoomAndPan="magnify" viewBox="0 0 375 374.999991" height="500" preserveAspectRatio="xMidYMid meet" version="1.0"><defs><clipPath id="2d84a86828"><path d="M 81 90 L 293 90 L 293 279 L 81 279 Z M 81 90 " clip-rule="nonzero"/></clipPath><clipPath id="47e2a5542b"><path d="M 159.269531 45.980469 L 321.070312 140.730469 L 214.480469 322.753906 L 52.679688 228.003906 Z M 159.269531 45.980469 " clip-rule="nonzero"/></clipPath><clipPath id="c53ed93734"><path d="M 186.875 184.367188 C 50.308594 99.867188 183.828125 24.144531 186.875 184.367188 Z M 186.875 184.367188 C 49.410156 266.828125 181.882812 344.40625 186.875 184.367188 Z M 186.875 184.367188 C 46.359375 106.609375 45.652344 260.101562 186.875 184.367188 Z M 186.875 184.367188 C 191.53125 24.128906 324.003906 101.707031 186.875 184.367188 Z M 186.875 184.367188 C 189.921875 344.585938 323.441406 268.867188 186.875 184.367188 Z M 186.875 184.367188 C 328.097656 108.628906 327.390625 262.125 186.875 184.367188 Z M 192.941406 187.917969 C 190.921875 186.734375 188.898438 185.550781 186.875 184.367188 C 188.875 183.273438 190.871094 182.179688 193.066406 180.75 C 191.070312 181.84375 188.875 183.273438 186.875 184.367188 C 186.851562 182.089844 187.023438 179.472656 187 177.195312 C 187.023438 179.472656 186.851562 182.089844 186.875 184.367188 C 184.851562 183.183594 182.828125 181.996094 180.808594 180.8125 C 182.828125 181.996094 184.851562 183.183594 186.875 184.367188 C 184.875 185.460938 182.878906 186.554688 180.683594 187.984375 C 182.679688 186.890625 184.875 185.460938 186.875 184.367188 C 186.898438 186.644531 186.726562 189.257812 186.75 191.535156 C 186.726562 189.257812 186.898438 186.644531 186.875 184.367188 C 188.898438 185.550781 190.921875 186.734375 192.941406 187.917969 Z M 192.941406 187.917969 " clip-rule="nonzero"/></clipPath><clipPath id="9487f61943"><path d="M 0 0 L 212 0 L 212 189 L 0 189 Z M 0 0 " clip-rule="nonzero"/></clipPath><clipPath id="308cf2065c"><path d="M 78.269531 -44.019531 L 240.070312 50.730469 L 133.480469 232.753906 L -28.320312 138.003906 Z M 78.269531 -44.019531 " clip-rule="nonzero"/></clipPath><clipPath id="443bf9d43e"><path d="M 105.875 94.367188 C -30.691406 9.867188 102.828125 -65.855469 105.875 94.367188 Z M 105.875 94.367188 C -31.589844 176.828125 100.882812 254.40625 105.875 94.367188 Z M 105.875 94.367188 C -34.640625 16.609375 -35.347656 170.101562 105.875 94.367188 Z M 105.875 94.367188 C 110.53125 -65.871094 243.003906 11.707031 105.875 94.367188 Z M 105.875 94.367188 C 108.921875 254.585938 242.441406 178.867188 105.875 94.367188 Z M 105.875 94.367188 C 247.097656 18.628906 246.390625 172.125 105.875 94.367188 Z M 111.941406 97.917969 C 109.921875 96.734375 107.898438 95.550781 105.875 94.367188 C 107.875 93.273438 109.871094 92.179688 112.066406 90.75 C 110.070312 91.84375 107.875 93.273438 105.875 94.367188 C 105.851562 92.089844 106.023438 89.472656 106 87.195312 C 106.023438 89.472656 105.851562 92.089844 105.875 94.367188 C 103.851562 93.183594 101.828125 91.996094 99.808594 90.8125 C 101.828125 91.996094 103.851562 93.183594 105.875 94.367188 C 103.875 95.460938 101.878906 96.554688 99.683594 97.984375 C 101.679688 96.890625 103.875 95.460938 105.875 94.367188 C 105.898438 96.644531 105.726562 99.257812 105.75 101.535156 C 105.726562 99.257812 105.898438 96.644531 105.875 94.367188 C 107.898438 95.550781 109.921875 96.734375 111.941406 97.917969 Z M 111.941406 97.917969 " clip-rule="nonzero"/></clipPath><clipPath id="7033ae30b5"><rect x="0" width="212" y="0" height="189"/></clipPath><clipPath id="8903a5662a"><path d="M 75 63.75 L 300 63.75 L 300 311.601562 L 75 311.601562 Z M 75 63.75 " clip-rule="nonzero"/></clipPath><clipPath id="48b2ebf88e"><path d="M 276.238281 201.632812 L 242.511719 191.898438 C 238.066406 190.617188 238.066406 184.382812 242.511719 183.101562 L 276.238281 173.367188 C 296.757812 167.421875 306.238281 143.992188 295.59375 125.625 C 284.890625 107.253906 259.65625 103.679688 244.238281 118.367188 L 218.898438 142.433594 C 215.554688 145.609375 210.09375 142.492188 211.195312 138.039062 L 219.558594 104.234375 C 224.601562 83.609375 208.90625 63.75 187.5 63.75 C 166.09375 63.75 150.398438 83.609375 155.5 104.234375 L 163.859375 138.039062 C 164.960938 142.492188 159.5 145.609375 156.15625 142.433594 L 130.820312 118.367188 C 115.402344 103.679688 90.167969 107.253906 79.464844 125.625 C 68.761719 143.992188 78.242188 167.421875 98.820312 173.367188 L 132.539062 183.097656 C 136.984375 184.378906 136.984375 190.617188 132.539062 191.898438 L 98.761719 201.632812 C 78.242188 207.578125 68.761719 231.007812 79.40625 249.375 C 90.109375 267.742188 115.34375 271.320312 130.761719 256.632812 L 156.101562 232.566406 C 159.445312 229.390625 164.90625 232.507812 163.804688 236.960938 L 155.441406 270.765625 C 150.34375 291.390625 166.09375 311.25 187.441406 311.25 C 208.855469 311.25 224.542969 291.390625 219.445312 270.765625 L 211.085938 236.960938 C 209.984375 232.507812 215.441406 229.390625 218.785156 232.566406 L 244.128906 256.632812 C 259.542969 271.320312 284.777344 267.742188 295.480469 249.375 C 306.238281 231.007812 296.757812 207.578125 276.238281 201.632812 Z M 187.5 208.621094 C 175.742188 208.621094 166.203125 199.160156 166.203125 187.5 C 166.203125 175.839844 175.742188 166.378906 187.5 166.378906 C 199.257812 166.378906 208.796875 175.839844 208.796875 187.5 C 208.796875 199.160156 199.257812 208.621094 187.5 208.621094 Z M 187.5 208.621094 " clip-rule="nonzero"/></clipPath><clipPath id="2b0a97ef83"><path d="M 0 0.75 L 225 0.75 L 225 248.28125 L 0 248.28125 Z M 0 0.75 " clip-rule="nonzero"/></clipPath><clipPath id="cad25783eb"><path d="M 201.238281 138.632812 L 167.511719 128.898438 C 163.066406 127.617188 163.066406 121.382812 167.511719 120.101562 L 201.238281 110.367188 C 221.757812 104.421875 231.238281 80.992188 220.59375 62.625 C 209.890625 44.253906 184.65625 40.679688 169.238281 55.367188 L 143.898438 79.433594 C 140.554688 82.609375 135.09375 79.492188 136.195312 75.039062 L 144.558594 41.234375 C 149.601562 20.609375 133.90625 0.75 112.5 0.75 C 91.09375 0.75 75.398438 20.609375 80.5 41.234375 L 88.859375 75.039062 C 89.960938 79.492188 84.5 82.609375 81.15625 79.433594 L 55.820312 55.367188 C 40.402344 40.679688 15.167969 44.253906 4.464844 62.625 C -6.238281 80.992188 3.242188 104.421875 23.820312 110.367188 L 57.539062 120.097656 C 61.984375 121.378906 61.984375 127.617188 57.539062 128.898438 L 23.761719 138.632812 C 3.242188 144.578125 -6.238281 168.007812 4.40625 186.375 C 15.109375 204.742188 40.34375 208.320312 55.761719 193.632812 L 81.101562 169.566406 C 84.445312 166.390625 89.90625 169.507812 88.804688 173.960938 L 80.441406 207.765625 C 75.34375 228.390625 91.09375 248.25 112.441406 248.25 C 133.855469 248.25 149.542969 228.390625 144.445312 207.765625 L 136.085938 173.960938 C 134.984375 169.507812 140.441406 166.390625 143.785156 169.566406 L 169.128906 193.632812 C 184.542969 208.320312 209.777344 204.742188 220.480469 186.375 C 231.238281 168.007812 221.757812 144.578125 201.238281 138.632812 Z M 112.5 145.621094 C 100.742188 145.621094 91.203125 136.160156 91.203125 124.5 C 91.203125 112.839844 100.742188 103.378906 112.5 103.378906 C 124.257812 103.378906 133.796875 112.839844 133.796875 124.5 C 133.796875 136.160156 124.257812 145.621094 112.5 145.621094 Z M 112.5 145.621094 " clip-rule="nonzero"/></clipPath><clipPath id="9ab6ccc8e3"><rect x="0" width="225" y="0" height="249"/></clipPath><clipPath id="ed67ce6d19"><path d="M 131.25 131.25 L 243.75 131.25 L 243.75 243.75 L 131.25 243.75 Z M 131.25 131.25 " clip-rule="nonzero"/></clipPath><clipPath id="5092441aaf"><path d="M 187.5 131.25 C 156.433594 131.25 131.25 156.433594 131.25 187.5 C 131.25 218.566406 156.433594 243.75 187.5 243.75 C 218.566406 243.75 243.75 218.566406 243.75 187.5 C 243.75 156.433594 218.566406 131.25 187.5 131.25 Z M 187.5 131.25 " clip-rule="nonzero"/></clipPath><clipPath id="2a430a3f23"><path d="M 0.25 0.25 L 112.75 0.25 L 112.75 112.75 L 0.25 112.75 Z M 0.25 0.25 " clip-rule="nonzero"/></clipPath><clipPath id="e3379dc582"><path d="M 56.5 0.25 C 25.433594 0.25 0.25 25.433594 0.25 56.5 C 0.25 87.566406 25.433594 112.75 56.5 112.75 C 87.566406 112.75 112.75 87.566406 112.75 56.5 C 112.75 25.433594 87.566406 0.25 56.5 0.25 Z M 56.5 0.25 " clip-rule="nonzero"/></clipPath><clipPath id="105f6b88f8"><rect x="0" width="113" y="0" height="113"/></clipPath><clipPath id="c9cd06108a"><path d="M 150.351562 176.222656 L 161.902344 176.222656 L 161.902344 187.679688 L 150.351562 187.679688 Z M 150.351562 176.222656 " clip-rule="nonzero"/></clipPath><clipPath id="dfd902aa11"><path d="M 156.121094 176.222656 C 152.933594 176.222656 150.351562 178.785156 150.351562 181.949219 C 150.351562 185.117188 152.933594 187.679688 156.121094 187.679688 C 159.304688 187.679688 161.886719 185.117188 161.886719 181.949219 C 161.886719 178.785156 159.304688 176.222656 156.121094 176.222656 Z M 156.121094 176.222656 " clip-rule="nonzero"/></clipPath><clipPath id="56d0e75c28"><path d="M 0.351562 0.222656 L 11.902344 0.222656 L 11.902344 11.679688 L 0.351562 11.679688 Z M 0.351562 0.222656 " clip-rule="nonzero"/></clipPath><clipPath id="3fad03d605"><path d="M 6.121094 0.222656 C 2.933594 0.222656 0.351562 2.785156 0.351562 5.949219 C 0.351562 9.117188 2.933594 11.679688 6.121094 11.679688 C 9.304688 11.679688 11.886719 9.117188 11.886719 5.949219 C 11.886719 2.785156 9.304688 0.222656 6.121094 0.222656 Z M 6.121094 0.222656 " clip-rule="nonzero"/></clipPath><clipPath id="6723791f15"><rect x="0" width="12" y="0" height="12"/></clipPath><clipPath id="a4a2af9c03"><path d="M 211.863281 176.222656 L 223.414062 176.222656 L 223.414062 187.679688 L 211.863281 187.679688 Z M 211.863281 176.222656 " clip-rule="nonzero"/></clipPath><clipPath id="27a3426393"><path d="M 217.628906 176.222656 C 214.445312 176.222656 211.863281 178.785156 211.863281 181.949219 C 211.863281 185.117188 214.445312 187.679688 217.628906 187.679688 C 220.816406 187.679688 223.398438 185.117188 223.398438 181.949219 C 223.398438 178.785156 220.816406 176.222656 217.628906 176.222656 Z M 217.628906 176.222656 " clip-rule="nonzero"/></clipPath><clipPath id="565505a357"><path d="M 0.863281 0.222656 L 12.414062 0.222656 L 12.414062 11.679688 L 0.863281 11.679688 Z M 0.863281 0.222656 " clip-rule="nonzero"/></clipPath><clipPath id="ab4a9f16cf"><path d="M 6.628906 0.222656 C 3.445312 0.222656 0.863281 2.785156 0.863281 5.949219 C 0.863281 9.117188 3.445312 11.679688 6.628906 11.679688 C 9.816406 11.679688 12.398438 9.117188 12.398438 5.949219 C 12.398438 2.785156 9.816406 0.222656 6.628906 0.222656 Z M 6.628906 0.222656 " clip-rule="nonzero"/></clipPath><clipPath id="ab9c498b54"><rect x="0" width="13" y="0" height="12"/></clipPath><clipPath id="9a584520fb"><path d="M 177.96875 182.007812 L 195.96875 182.007812 L 195.96875 192.507812 L 177.96875 192.507812 Z M 177.96875 182.007812 " clip-rule="nonzero"/></clipPath></defs><g clip-path="url(#2d84a86828)"><g clip-path="url(#47e2a5542b)"><g clip-path="url(#c53ed93734)"><g transform="matrix(1, 0, 0, 1, 81, 90)"><g clip-path="url(#7033ae30b5)"><g clip-path="url(#9487f61943)"><g clip-path="url(#308cf2065c)"><g clip-path="url(#443bf9d43e)"><path fill="#f2f5f7" d="M 78.269531 -44.019531 L 240.070312 50.730469 L 133.480469 232.753906 L -28.320312 138.003906 Z M 78.269531 -44.019531 " fill-opacity="1" fill-rule="nonzero"/></g></g></g></g></g></g></g></g><g clip-path="url(#8903a5662a)"><g clip-path="url(#48b2ebf88e)"><g transform="matrix(1, 0, 0, 1, 75, 63)"><g clip-path="url(#9ab6ccc8e3)"><g clip-path="url(#2b0a97ef83)"><g clip-path="url(#cad25783eb)"><path fill="#ffffff" d="M 0 0.75 L 225 0.75 L 225 248.601562 L 0 248.601562 Z M 0 0.75 " fill-opacity="1" fill-rule="nonzero"/></g></g></g></g></g></g><g clip-path="url(#ed67ce6d19)"><g clip-path="url(#5092441aaf)"><g transform="matrix(1, 0, 0, 1, 131, 131)"><g clip-path="url(#105f6b88f8)"><g clip-path="url(#2a430a3f23)"><g clip-path="url(#e3379dc582)"><path fill="#ffde59" d="M 0.25 0.25 L 112.75 0.25 L 112.75 112.75 L 0.25 112.75 Z M 0.25 0.25 " fill-opacity="1" fill-rule="nonzero"/></g></g></g></g></g></g><g clip-path="url(#c9cd06108a)"><g clip-path="url(#dfd902aa11)"><g transform="matrix(1, 0, 0, 1, 150, 176)"><g clip-path="url(#6723791f15)"><g clip-path="url(#56d0e75c28)"><g clip-path="url(#3fad03d605)"><path fill="#000000" d="M 0.351562 0.222656 L 11.902344 0.222656 L 11.902344 11.679688 L 0.351562 11.679688 Z M 0.351562 0.222656 " fill-opacity="1" fill-rule="nonzero"/></g></g></g></g></g></g><g clip-path="url(#a4a2af9c03)"><g clip-path="url(#27a3426393)"><g transform="matrix(1, 0, 0, 1, 211, 176)"><g clip-path="url(#ab9c498b54)"><g clip-path="url(#565505a357)"><g clip-path="url(#ab4a9f16cf)"><path fill="#000000" d="M 0.863281 0.222656 L 12.414062 0.222656 L 12.414062 11.679688 L 0.863281 11.679688 Z M 0.863281 0.222656 " fill-opacity="1" fill-rule="nonzero"/></g></g></g></g></g></g><g clip-path="url(#9a584520fb)"><path fill="#000000" d="M 179.398438 182.015625 C 179.589844 182.015625 179.769531 182.054688 179.945312 182.125 C 180.121094 182.199219 180.277344 182.304688 180.410156 182.4375 C 180.542969 182.574219 180.648438 182.726562 180.71875 182.902344 C 180.792969 183.078125 180.828125 183.261719 180.828125 183.453125 C 180.828125 186.859375 183.582031 189.628906 186.96875 189.628906 C 190.355469 189.628906 193.113281 186.859375 193.113281 183.453125 C 193.113281 183.261719 193.148438 183.078125 193.222656 182.902344 C 193.292969 182.726562 193.398438 182.574219 193.53125 182.4375 C 193.664062 182.304688 193.820312 182.199219 193.996094 182.125 C 194.167969 182.054688 194.351562 182.015625 194.542969 182.015625 C 194.730469 182.015625 194.914062 182.054688 195.089844 182.125 C 195.261719 182.199219 195.417969 182.304688 195.550781 182.4375 C 195.6875 182.574219 195.789062 182.726562 195.863281 182.902344 C 195.933594 183.078125 195.96875 183.261719 195.96875 183.453125 C 195.96875 188.445312 191.933594 192.503906 186.96875 192.503906 C 182.007812 192.503906 177.96875 188.445312 177.96875 183.453125 C 177.96875 183.261719 178.007812 183.078125 178.078125 182.902344 C 178.152344 182.726562 178.253906 182.574219 178.386719 182.4375 C 178.523438 182.304688 178.675781 182.199219 178.851562 182.125 C 179.027344 182.054688 179.210938 182.015625 179.398438 182.015625 Z M 179.398438 182.015625 " fill-opacity="1" fill-rule="nonzero"/></g></svg>